<mxfile host="app.diagrams.net" modified="2020-10-12T14:21:24.591Z" agent="5.0 (Windows NT 10.0; Win64; x64) AppleWebKit/537.36 (KHTML, like Gecko) Chrome/85.0.4183.121 Safari/537.36" etag="BJSv8wzi9Mdxor2Hn3Im" version="13.7.9" type="github">
  <diagram id="lPe6BdOYrIwT_Hoti-UU" name="Page-1">
    <mxGraphModel dx="1420" dy="802" grid="1" gridSize="10" guides="1" tooltips="1" connect="1" arrows="1" fold="1" page="1" pageScale="1" pageWidth="850" pageHeight="1100" math="0" shadow="0">
      <root>
        <mxCell id="0" />
        <mxCell id="1" parent="0" />
        <mxCell id="Vd_Ihli-ZlGYgAavKrqG-5" value="" style="edgeStyle=orthogonalEdgeStyle;rounded=0;orthogonalLoop=1;jettySize=auto;html=1;" edge="1" parent="1" source="Vd_Ihli-ZlGYgAavKrqG-1" target="Vd_Ihli-ZlGYgAavKrqG-2">
          <mxGeometry relative="1" as="geometry" />
        </mxCell>
        <mxCell id="Vd_Ihli-ZlGYgAavKrqG-1" value="Main Module" style="rounded=1;whiteSpace=wrap;html=1;" vertex="1" parent="1">
          <mxGeometry x="20" y="10" width="140" height="60" as="geometry" />
        </mxCell>
        <mxCell id="Vd_Ihli-ZlGYgAavKrqG-2" value="Call getWeight()" style="rounded=0;whiteSpace=wrap;html=1;" vertex="1" parent="1">
          <mxGeometry x="30" y="120" width="120" height="60" as="geometry" />
        </mxCell>
        <mxCell id="Vd_Ihli-ZlGYgAavKrqG-4" value="" style="endArrow=classic;html=1;" edge="1" parent="1">
          <mxGeometry width="50" height="50" relative="1" as="geometry">
            <mxPoint x="90" y="70" as="sourcePoint" />
            <mxPoint x="89.5" y="120" as="targetPoint" />
          </mxGeometry>
        </mxCell>
        <mxCell id="Vd_Ihli-ZlGYgAavKrqG-6" value="" style="endArrow=classic;html=1;" edge="1" parent="1" target="Vd_Ihli-ZlGYgAavKrqG-7">
          <mxGeometry width="50" height="50" relative="1" as="geometry">
            <mxPoint x="90" y="180" as="sourcePoint" />
            <mxPoint x="89.5" y="230" as="targetPoint" />
          </mxGeometry>
        </mxCell>
        <mxCell id="Vd_Ihli-ZlGYgAavKrqG-7" value="Call getHeight()" style="rounded=0;whiteSpace=wrap;html=1;" vertex="1" parent="1">
          <mxGeometry x="30" y="220" width="120" height="60" as="geometry" />
        </mxCell>
        <mxCell id="Vd_Ihli-ZlGYgAavKrqG-8" value="" style="endArrow=classic;html=1;" edge="1" parent="1" target="Vd_Ihli-ZlGYgAavKrqG-9">
          <mxGeometry width="50" height="50" relative="1" as="geometry">
            <mxPoint x="90" y="280" as="sourcePoint" />
            <mxPoint x="89.5" y="330" as="targetPoint" />
          </mxGeometry>
        </mxCell>
        <mxCell id="Vd_Ihli-ZlGYgAavKrqG-9" value="Call showBMI()" style="rounded=0;whiteSpace=wrap;html=1;" vertex="1" parent="1">
          <mxGeometry x="30" y="310" width="120" height="60" as="geometry" />
        </mxCell>
        <mxCell id="Vd_Ihli-ZlGYgAavKrqG-11" value="" style="endArrow=classic;html=1;" edge="1" parent="1" target="Vd_Ihli-ZlGYgAavKrqG-12">
          <mxGeometry width="50" height="50" relative="1" as="geometry">
            <mxPoint x="90" y="370" as="sourcePoint" />
            <mxPoint x="89.5" y="420" as="targetPoint" />
          </mxGeometry>
        </mxCell>
        <mxCell id="Vd_Ihli-ZlGYgAavKrqG-12" value="End Module" style="rounded=1;whiteSpace=wrap;html=1;" vertex="1" parent="1">
          <mxGeometry x="29.5" y="390" width="120" height="60" as="geometry" />
        </mxCell>
        <mxCell id="Vd_Ihli-ZlGYgAavKrqG-14" value="Return" style="rounded=1;whiteSpace=wrap;html=1;" vertex="1" parent="1">
          <mxGeometry x="250" y="430" width="120" height="60" as="geometry" />
        </mxCell>
        <mxCell id="Vd_Ihli-ZlGYgAavKrqG-15" value="Module getWeight()&lt;span style=&quot;color: rgba(0 , 0 , 0 , 0) ; font-family: monospace ; font-size: 0px&quot;&gt;%3CmxGraphModel%3E%3Croot%3E%3CmxCell%20id%3D%220%22%2F%3E%3CmxCell%20id%3D%221%22%20parent%3D%220%22%2F%3E%3CmxCell%20id%3D%222%22%20value%3D%22%22%20style%3D%22endArrow%3Dclassic%3Bhtml%3D1%3B%22%20edge%3D%221%22%20parent%3D%221%22%3E%3CmxGeometry%20width%3D%2250%22%20height%3D%2250%22%20relative%3D%221%22%20as%3D%22geometry%22%3E%3CmxPoint%20x%3D%22410%22%20y%3D%2260%22%20as%3D%22sourcePoint%22%2F%3E%3CmxPoint%20x%3D%22409.5%22%20y%3D%22110%22%20as%3D%22targetPoint%22%2F%3E%3C%2FmxGeometry%3E%3C%2FmxCell%3E%3C%2Froot%3E%3C%2FmxGraphModel%3E&lt;/span&gt;" style="rounded=1;whiteSpace=wrap;html=1;" vertex="1" parent="1">
          <mxGeometry x="250" y="10" width="120" height="60" as="geometry" />
        </mxCell>
        <mxCell id="Vd_Ihli-ZlGYgAavKrqG-16" value="" style="endArrow=classic;html=1;" edge="1" parent="1">
          <mxGeometry width="50" height="50" relative="1" as="geometry">
            <mxPoint x="310" y="70" as="sourcePoint" />
            <mxPoint x="309.5" y="120" as="targetPoint" />
          </mxGeometry>
        </mxCell>
        <mxCell id="Vd_Ihli-ZlGYgAavKrqG-17" value="Declare Weight" style="rounded=0;whiteSpace=wrap;html=1;" vertex="1" parent="1">
          <mxGeometry x="250" y="120" width="120" height="60" as="geometry" />
        </mxCell>
        <mxCell id="Vd_Ihli-ZlGYgAavKrqG-18" value="" style="endArrow=classic;html=1;" edge="1" parent="1">
          <mxGeometry width="50" height="50" relative="1" as="geometry">
            <mxPoint x="310" y="180" as="sourcePoint" />
            <mxPoint x="309.5" y="230" as="targetPoint" />
          </mxGeometry>
        </mxCell>
        <mxCell id="Vd_Ihli-ZlGYgAavKrqG-19" value="Display &quot;Enter Weight: &quot;" style="shape=parallelogram;perimeter=parallelogramPerimeter;whiteSpace=wrap;html=1;fixedSize=1;" vertex="1" parent="1">
          <mxGeometry x="230" y="230" width="160" height="60" as="geometry" />
        </mxCell>
        <mxCell id="Vd_Ihli-ZlGYgAavKrqG-20" value="" style="endArrow=classic;html=1;" edge="1" parent="1" target="Vd_Ihli-ZlGYgAavKrqG-21">
          <mxGeometry width="50" height="50" relative="1" as="geometry">
            <mxPoint x="310" y="290" as="sourcePoint" />
            <mxPoint x="309.5" y="340" as="targetPoint" />
          </mxGeometry>
        </mxCell>
        <mxCell id="Vd_Ihli-ZlGYgAavKrqG-21" value="Input Weight" style="shape=parallelogram;perimeter=parallelogramPerimeter;whiteSpace=wrap;html=1;fixedSize=1;" vertex="1" parent="1">
          <mxGeometry x="235" y="320" width="150" height="60" as="geometry" />
        </mxCell>
        <mxCell id="Vd_Ihli-ZlGYgAavKrqG-22" value="" style="endArrow=classic;html=1;" edge="1" parent="1">
          <mxGeometry width="50" height="50" relative="1" as="geometry">
            <mxPoint x="310" y="380" as="sourcePoint" />
            <mxPoint x="309.5" y="430" as="targetPoint" />
          </mxGeometry>
        </mxCell>
        <mxCell id="Vd_Ihli-ZlGYgAavKrqG-23" value="Module getHeight()" style="rounded=1;whiteSpace=wrap;html=1;" vertex="1" parent="1">
          <mxGeometry x="450" y="10" width="120" height="60" as="geometry" />
        </mxCell>
        <mxCell id="Vd_Ihli-ZlGYgAavKrqG-24" value="" style="endArrow=classic;html=1;" edge="1" parent="1" target="Vd_Ihli-ZlGYgAavKrqG-25">
          <mxGeometry width="50" height="50" relative="1" as="geometry">
            <mxPoint x="510" y="70" as="sourcePoint" />
            <mxPoint x="509.5" y="120" as="targetPoint" />
          </mxGeometry>
        </mxCell>
        <mxCell id="Vd_Ihli-ZlGYgAavKrqG-25" value="Declare Height" style="rounded=0;whiteSpace=wrap;html=1;" vertex="1" parent="1">
          <mxGeometry x="450" y="110" width="120" height="60" as="geometry" />
        </mxCell>
        <mxCell id="Vd_Ihli-ZlGYgAavKrqG-26" value="" style="endArrow=classic;html=1;" edge="1" parent="1">
          <mxGeometry width="50" height="50" relative="1" as="geometry">
            <mxPoint x="510" y="170" as="sourcePoint" />
            <mxPoint x="510" y="210" as="targetPoint" />
          </mxGeometry>
        </mxCell>
        <mxCell id="Vd_Ihli-ZlGYgAavKrqG-28" value="Display &quot;Enter Height: &quot;" style="shape=parallelogram;perimeter=parallelogramPerimeter;whiteSpace=wrap;html=1;fixedSize=1;" vertex="1" parent="1">
          <mxGeometry x="435" y="210" width="150" height="60" as="geometry" />
        </mxCell>
        <mxCell id="Vd_Ihli-ZlGYgAavKrqG-29" value="" style="endArrow=classic;html=1;" edge="1" parent="1" target="Vd_Ihli-ZlGYgAavKrqG-30">
          <mxGeometry width="50" height="50" relative="1" as="geometry">
            <mxPoint x="510" y="270" as="sourcePoint" />
            <mxPoint x="509.5" y="320" as="targetPoint" />
          </mxGeometry>
        </mxCell>
        <mxCell id="Vd_Ihli-ZlGYgAavKrqG-30" value="Input Height" style="shape=parallelogram;perimeter=parallelogramPerimeter;whiteSpace=wrap;html=1;fixedSize=1;" vertex="1" parent="1">
          <mxGeometry x="450" y="310" width="120" height="60" as="geometry" />
        </mxCell>
        <mxCell id="Vd_Ihli-ZlGYgAavKrqG-31" value="" style="endArrow=classic;html=1;" edge="1" parent="1" target="Vd_Ihli-ZlGYgAavKrqG-32">
          <mxGeometry width="50" height="50" relative="1" as="geometry">
            <mxPoint x="510" y="370" as="sourcePoint" />
            <mxPoint x="509.5" y="420" as="targetPoint" />
            <Array as="points">
              <mxPoint x="510" y="390" />
            </Array>
          </mxGeometry>
        </mxCell>
        <mxCell id="Vd_Ihli-ZlGYgAavKrqG-32" value="Return" style="rounded=1;whiteSpace=wrap;html=1;" vertex="1" parent="1">
          <mxGeometry x="450" y="410" width="120" height="60" as="geometry" />
        </mxCell>
        <mxCell id="Vd_Ihli-ZlGYgAavKrqG-33" value="Module showBMI()" style="rounded=1;whiteSpace=wrap;html=1;" vertex="1" parent="1">
          <mxGeometry x="670" y="10" width="120" height="60" as="geometry" />
        </mxCell>
        <mxCell id="Vd_Ihli-ZlGYgAavKrqG-34" value="" style="endArrow=classic;html=1;" edge="1" parent="1">
          <mxGeometry width="50" height="50" relative="1" as="geometry">
            <mxPoint x="730" y="70" as="sourcePoint" />
            <mxPoint x="729.5" y="120" as="targetPoint" />
          </mxGeometry>
        </mxCell>
        <mxCell id="Vd_Ihli-ZlGYgAavKrqG-35" value="Declare BMI" style="rounded=0;whiteSpace=wrap;html=1;" vertex="1" parent="1">
          <mxGeometry x="670" y="120" width="120" height="60" as="geometry" />
        </mxCell>
        <mxCell id="Vd_Ihli-ZlGYgAavKrqG-36" value="" style="endArrow=classic;html=1;" edge="1" parent="1">
          <mxGeometry width="50" height="50" relative="1" as="geometry">
            <mxPoint x="730" y="180" as="sourcePoint" />
            <mxPoint x="729.5" y="230" as="targetPoint" />
          </mxGeometry>
        </mxCell>
        <mxCell id="Vd_Ihli-ZlGYgAavKrqG-37" value="Display &quot;Your BMI is: &quot;" style="shape=parallelogram;perimeter=parallelogramPerimeter;whiteSpace=wrap;html=1;fixedSize=1;" vertex="1" parent="1">
          <mxGeometry x="655" y="230" width="150" height="60" as="geometry" />
        </mxCell>
        <mxCell id="Vd_Ihli-ZlGYgAavKrqG-38" value="" style="endArrow=classic;html=1;" edge="1" parent="1" target="Vd_Ihli-ZlGYgAavKrqG-39">
          <mxGeometry width="50" height="50" relative="1" as="geometry">
            <mxPoint x="730" y="290" as="sourcePoint" />
            <mxPoint x="729.5" y="340" as="targetPoint" />
          </mxGeometry>
        </mxCell>
        <mxCell id="Vd_Ihli-ZlGYgAavKrqG-39" value="Weight/Height^2" style="rounded=0;whiteSpace=wrap;html=1;" vertex="1" parent="1">
          <mxGeometry x="670" y="320" width="120" height="60" as="geometry" />
        </mxCell>
        <mxCell id="Vd_Ihli-ZlGYgAavKrqG-40" value="" style="endArrow=classic;html=1;" edge="1" parent="1" target="Vd_Ihli-ZlGYgAavKrqG-41">
          <mxGeometry width="50" height="50" relative="1" as="geometry">
            <mxPoint x="730" y="380" as="sourcePoint" />
            <mxPoint x="729.5" y="430" as="targetPoint" />
          </mxGeometry>
        </mxCell>
        <mxCell id="Vd_Ihli-ZlGYgAavKrqG-41" value="Return" style="rounded=1;whiteSpace=wrap;html=1;" vertex="1" parent="1">
          <mxGeometry x="670" y="410" width="120" height="60" as="geometry" />
        </mxCell>
      </root>
    </mxGraphModel>
  </diagram>
</mxfile>
